<?xml version="1.0" encoding="iso-8859-1"?>
<!-- Generator: Adobe Illustrator 19.0.0, SVG Export Plug-In . SVG Version: 6.00 Build 0)  -->
<svg version="1.1" id="Layer_1" xmlns="http://www.w3.org/2000/svg" xmlns:xlink="http://www.w3.org/1999/xlink" x="0px" y="0px"
	 viewBox="0 0 488.364 488.364" style="enable-background:new 0 0 488.364 488.364;" xml:space="preserve">
<g id="XMLID_587_">
	<g id="XMLID_519_">
		<polygon style="fill:#E0D6C6;" points="480.83,480.864 7.535,480.864 7.535,7.569 404.492,7.569 480.83,91.54 		"/>
	</g>
	<g id="XMLID_701_">
		<rect x="267.084" y="30.47" style="fill:#E71D73;" width="45.803" height="91.606"/>
	</g>
	<g id="XMLID_565_">
		<rect x="7.535" y="7.574" style="fill:#CBBBA0;" width="244.281" height="473.29"/>
	</g>
	<g id="XMLID_700_">
		<rect x="121.59" y="7.569" style="fill:#D60B52;" width="61.522" height="137.408"/>
	</g>
	<g id="XMLID_686_">
		<rect x="122.041" y="267.118" style="fill:#FFFFFF;" width="244.281" height="213.746"/>
	</g>
	<g id="XMLID_632_">
		<rect x="122.041" y="206.047" style="fill:#E71D73;" width="244.281" height="61.07"/>
	</g>
	<g id="XMLID_672_">
		<rect x="122.042" y="206.047" style="fill:#D60B52;" width="145.042" height="61.07"/>
	</g>
	<g id="XMLID_154_">
		<rect x="137.309" y="313.081" style="fill:#1D1D1B;" width="213.746" height="15"/>
	</g>
	<g id="XMLID_155_">
		<rect x="137.309" y="366.517" style="fill:#1D1D1B;" width="213.746" height="15"/>
	</g>
	<g id="XMLID_156_">
		<rect x="137.309" y="419.954" style="fill:#1D1D1B;" width="213.746" height="15"/>
	</g>
	<g id="XMLID_157_">
		<rect x="38.07" y="435.195" style="fill:#1D1D1B;" width="53.436" height="15"/>
	</g>
	<path style="fill:#1D1D1B;" d="M407.81,0.069L0.034,0v488.364H488.33V88.641L407.81,0.069z M129.559,137.477l-0.017-122.455
		l46.069,0.008v122.447H129.559z M190.612,15.033l168.211,0.028v122.416H190.612V15.033z M358.823,259.618H129.542v-46.07h229.281
		V259.618z M358.823,274.618v198.747H129.568V274.618H358.823z M473.33,473.364h-99.507V274.618v-7.5v-68.57H114.542v76.07h0.026
		v198.747H15.034V15.003l99.508,0.017l0.019,137.457h259.262V15.064l27.35,0.005L473.33,94.44V473.364z"/>
	<g id="XMLID_151_">
		<path style="fill:#1D1D1B;" d="M320.386,129.576h-60.803V22.97h60.803V129.576z M274.584,114.576h30.803V37.97h-30.803V114.576z"
			/>
	</g>
	<g id="XMLID_161_">
		<rect x="236.682" y="22.836" style="fill:#1D1D1B;" width="15" height="106.873"/>
	</g>
	<g id="XMLID_162_">
		<rect x="396.858" y="435.195" style="fill:#1D1D1B;" width="53.437" height="15"/>
	</g>
	<g id="XMLID_164_">
		<rect x="144.943" y="229.082" style="fill:#1D1D1B;" width="38.169" height="15"/>
	</g>
	<g id="XMLID_165_">
		<rect x="198.38" y="229.082" style="fill:#1D1D1B;" width="145.042" height="15"/>
	</g>
	<g id="XMLID_166_">
		<rect x="38.07" y="404.66" style="fill:#1D1D1B;" width="15.268" height="15"/>
	</g>
	<g id="XMLID_167_">
		<rect x="38.07" y="374.124" style="fill:#1D1D1B;" width="15.268" height="15"/>
	</g>
	<g id="XMLID_168_">
		<rect x="38.07" y="343.589" style="fill:#1D1D1B;" width="15.268" height="15"/>
	</g>
	<g id="XMLID_169_">
		<rect x="38.204" y="38.104" style="fill:#FFFFFF;" width="15" height="53.437"/>
	</g>
</g>
<g>
</g>
<g>
</g>
<g>
</g>
<g>
</g>
<g>
</g>
<g>
</g>
<g>
</g>
<g>
</g>
<g>
</g>
<g>
</g>
<g>
</g>
<g>
</g>
<g>
</g>
<g>
</g>
<g>
</g>
</svg>
